<svg xmlns="http://www.w3.org/2000/svg" width="249" height="54" viewBox="0 0 249 54" class="editor-view__logo-preview" data-v-719f541d="" data-v-40fc5078=""><svg id="mark" viewBox="0 0 32 32" width="54" height="54" x="0" y="0" data-v-719f541d="" style="fill: rgb(0, 0, 0);"><rect x="0" y="0" width="100%" height="100%" fill="none" data-v-719f541d=""></rect><g data-v-719f541d=""><g xmlns="http://www.w3.org/2000/svg"><g><polygon points="9.382,8.675 23.325,8.675 23.325,22.618 32,31.293 32,0 0.707,0   "></polygon><polygon points="22.618,23.325 8.675,23.325 8.675,9.382 0,0.707 0,32 31.293,32   "></polygon></g></g></g></svg><svg id="name" viewBox="0 0 179.84547424316406 46" width="179" height="45.78374871344851" x="70" y="4.108125643275745" data-v-719f541d="" style="fill: rgb(0, 0, 0);"><rect x="0" y="0" width="100%" height="100%" fill="none" data-v-719f541d=""></rect><g data-v-719f541d=""><path xmlns="http://www.w3.org/2000/svg" d="M29.72 5.11L29.72 5.11Q31.14 5.11 32.02 6.09Q32.89 7.08 32.89 8.51L32.89 8.51Q32.89 9.43 32.48 10.65Q32.06 11.87 31.60 12.65L31.60 12.65Q31.42 12.79 31.21 12.70Q31.00 12.60 31.05 12.37L31.05 12.37Q31.33 11.55 31.28 10.72Q31.23 9.89 30.82 9.20Q30.41 8.51 29.55 8.07Q28.70 7.64 27.42 7.64L27.42 7.64Q25.67 7.64 24.40 8.26Q23.14 8.88 22.08 10.42Q21.02 11.96 20.10 14.54Q19.18 17.11 18.22 20.98L18.22 20.98Q16.61 27.14 13.75 30.50L13.75 30.50Q15.82 31.28 18.10 31.90Q20.38 32.52 23.14 32.52L23.14 32.52Q25.44 32.52 26.63 31.69Q27.83 30.87 28.61 29.30L28.61 29.30Q28.80 29.16 28.96 29.28Q29.12 29.39 29.07 29.67L29.07 29.67Q27.97 32.15 26.13 33.46Q24.29 34.78 21.21 34.78L21.21 34.78Q18.49 34.78 16.26 33.97Q14.03 33.17 11.91 32.25L11.91 32.25Q8.56 34.78 3.68 34.78L3.68 34.78Q1.84 34.78 0.92 34.13Q0 33.49 0 32.52L0 32.52Q0 31.92 0.44 31.23Q0.87 30.54 1.66 29.95Q2.44 29.35 3.52 28.93Q4.60 28.52 5.93 28.52L5.93 28.52Q7.64 28.52 9.27 28.96Q10.90 29.39 12.60 30.04L12.60 30.04Q13.39 28.75 14.12 26.82Q14.86 24.89 15.59 22.08L15.59 22.08Q16.65 18.12 18.12 14.97Q19.60 11.82 21.41 9.64Q23.23 7.45 25.32 6.28Q27.42 5.11 29.72 5.11ZM5.75 33.58L5.75 33.58Q7.41 33.58 8.72 33.23Q10.03 32.89 11.09 31.88L11.09 31.88Q9.38 31.14 7.64 30.59Q5.89 30.04 3.91 30.04L3.91 30.04Q1.79 30.04 1.79 31.46L1.79 31.46Q1.79 32.38 2.83 32.98Q3.86 33.58 5.75 33.58ZM40.57 25.30L40.57 25.30Q40.57 27.92 33.63 28.89L33.63 28.89Q33.58 29.35 33.56 29.81Q33.53 30.27 33.53 30.77L33.53 30.77Q33.53 31.97 34.09 32.61Q34.64 33.26 35.83 33.26L35.83 33.26Q36.71 33.26 37.63 32.75Q38.55 32.25 39.10 31.46L39.10 31.46Q39.28 31.37 39.38 31.53Q39.47 31.69 39.42 31.88L39.42 31.88Q38.50 33.07 37.10 33.92Q35.70 34.78 34.09 34.78L34.09 34.78Q32.48 34.78 31.76 33.97Q31.05 33.17 31.05 31.69L31.05 31.69Q31.05 30.27 31.65 28.73Q32.25 27.19 33.19 25.90Q34.13 24.61 35.35 23.80Q36.57 23.00 37.81 23.00L37.81 23.00Q39.05 23.00 39.81 23.71Q40.57 24.43 40.57 25.30ZM36.57 24.20L36.57 24.20Q35.51 24.20 34.75 25.18Q33.99 26.17 33.72 28.24L33.72 28.24Q35.93 28.01 36.98 27.39Q38.04 26.77 38.04 25.85L38.04 25.85Q38.04 25.16 37.63 24.68Q37.21 24.20 36.57 24.20ZM54.56 31.88L54.56 31.88Q54.65 31.79 54.79 31.88Q54.92 31.97 54.88 32.15L54.88 32.15Q54.05 33.35 53.04 34.06Q52.03 34.78 51.11 34.78L51.11 34.78Q50.05 34.78 49.75 33.28Q49.45 31.79 50.05 29.72L50.05 29.72Q48.81 31.69 47.36 33.10Q45.91 34.50 44.30 34.78L44.30 34.78Q43.19 34.78 42.60 33.76Q42.00 32.75 42.00 31.42L42.00 31.42Q42.00 29.90 42.73 28.40Q43.47 26.91 44.69 25.71Q45.91 24.52 47.40 23.76Q48.90 23.00 50.42 23.00L50.42 23.00Q52.03 23.00 52.95 23.78L52.95 23.78Q53.41 23.46 54.12 23.23Q54.83 23.00 55.38 23.00L55.38 23.00Q55.57 23.00 55.57 23.23L55.57 23.23Q54.51 24.52 53.75 26.06Q52.99 27.60 52.58 29.00Q52.16 30.41 52.07 31.51Q51.98 32.61 52.26 33.03L52.26 33.03Q52.49 33.30 53.04 33.19Q53.59 33.07 54.56 31.88ZM45.72 33.07L45.72 33.07Q46.28 33.07 47.08 32.38Q47.89 31.69 48.76 30.54Q49.63 29.39 50.48 27.97Q51.34 26.54 51.98 25.07L51.98 25.07Q51.80 24.47 51.13 24.10Q50.46 23.74 49.59 23.74L49.59 23.74Q48.53 23.74 47.61 24.26Q46.69 24.79 46.02 25.74Q45.36 26.68 44.97 27.99Q44.57 29.30 44.57 30.87L44.57 30.87Q44.57 31.88 44.92 32.48Q45.26 33.07 45.72 33.07ZM61.87 24.33L61.87 24.33Q61.87 25.02 61.73 25.90Q61.59 26.77 61.36 27.69L61.36 27.69Q62.28 25.48 63.39 24.24Q64.49 23.00 65.78 23.00L65.78 23.00Q66.47 23.00 66.84 23.32Q67.21 23.64 67.21 24.15L67.21 24.15Q67.21 24.61 66.86 25.35Q66.52 26.08 66.29 26.36L66.29 26.36Q66.19 26.40 66.10 26.33Q66.01 26.27 66.01 26.17L66.01 26.17Q66.01 25.85 65.76 25.62Q65.50 25.39 65.00 25.39L65.00 25.39Q63.39 25.39 62.08 27.58Q60.77 29.76 59.66 33.86L59.66 33.86Q59.62 34.09 59.34 34.25Q59.06 34.41 58.72 34.52Q58.37 34.64 58.01 34.71Q57.64 34.78 57.36 34.78L57.36 34.78Q56.86 34.78 57.09 34.22L57.09 34.22Q57.50 33.26 57.89 32.13Q58.28 31.00 58.60 29.85Q58.93 28.70 59.16 27.62Q59.39 26.54 59.52 25.62L59.52 25.62Q59.62 24.93 59.59 24.56Q59.57 24.20 59.20 24.20L59.20 24.20Q58.74 24.20 58.26 24.59Q57.78 24.98 57.36 25.58L57.36 25.58Q57.18 25.71 57.02 25.60Q56.86 25.48 56.95 25.30L56.95 25.30Q57.22 24.93 57.62 24.54Q58.01 24.15 58.49 23.80Q58.97 23.46 59.50 23.23Q60.03 23.00 60.58 23.00L60.58 23.00Q61.32 23.00 61.59 23.34Q61.87 23.69 61.87 24.33ZM79.81 31.56L79.81 31.56Q79.90 31.46 80.04 31.58Q80.18 31.69 80.13 31.88L80.13 31.88Q79.30 33.03 78.22 33.90Q77.14 34.78 76.08 34.78L76.08 34.78Q75.30 34.78 74.86 34.27Q74.43 33.76 74.43 32.94L74.43 32.94Q74.43 31.33 75.00 29.44Q75.58 27.55 76.54 25.62L76.54 25.62Q76.68 25.30 76.68 24.93L76.68 24.93Q76.68 24.47 76.27 24.47L76.27 24.47Q74.57 24.47 72.50 26.79Q70.43 29.12 68.68 34.18L68.68 34.18Q68.63 34.32 68.38 34.43Q68.13 34.55 67.80 34.61Q67.48 34.68 67.16 34.73Q66.84 34.78 66.65 34.78L66.65 34.78Q66.42 34.78 66.31 34.68Q66.19 34.59 66.29 34.36L66.29 34.36Q67.07 32.38 67.87 30.01Q68.68 27.65 69.28 25.25L69.28 25.25Q69.41 24.79 69.32 24.59Q69.23 24.38 69 24.38L69 24.38Q68.49 24.38 68.03 24.82Q67.57 25.25 67.21 25.76L67.21 25.76Q67.07 25.85 66.95 25.71Q66.84 25.58 66.88 25.44L66.88 25.44Q67.11 25.12 67.50 24.70Q67.90 24.29 68.40 23.90Q68.91 23.51 69.46 23.25Q70.01 23.00 70.56 23.00L70.56 23.00Q71.35 23.00 71.60 23.48Q71.85 23.97 71.71 24.66L71.71 24.66Q71.48 25.67 71.23 26.56Q70.98 27.46 70.61 28.57L70.61 28.57Q71.16 27.55 71.97 26.56Q72.77 25.58 73.76 24.77Q74.75 23.97 75.90 23.48Q77.05 23.00 78.34 23.00L78.34 23.00Q78.89 23.00 79.19 23.28Q79.49 23.55 79.49 23.92L79.49 23.92Q79.49 24.56 79.17 25.07L79.17 25.07Q78.20 26.82 77.53 28.68Q76.87 30.54 76.87 32.02L76.87 32.02Q76.87 33.21 77.65 33.21L77.65 33.21Q78.15 33.21 78.66 32.80Q79.17 32.38 79.81 31.56ZM93.43 10.72L93.43 10.72Q93.43 12.33 94.53 13.45Q95.63 14.58 98.26 15.36L98.26 15.36Q98.39 15.46 98.23 15.71Q98.07 15.96 97.80 16.26Q97.52 16.56 97.20 16.79Q96.88 17.02 96.69 17.07L96.69 17.07Q91.59 16.84 88.80 19.25Q86.02 21.67 86.02 26.40L86.02 26.40Q86.02 28.01 86.50 29.39Q86.99 30.77 87.88 31.79Q88.78 32.80 90.05 33.37Q91.31 33.95 92.92 33.95L92.92 33.95Q96.69 33.95 99.08 32.20Q101.48 30.45 102.53 26.54L102.53 26.54Q102.67 26.31 102.83 26.40Q102.99 26.50 103.04 26.77L103.04 26.77Q102.49 29.35 101.73 31.05Q100.97 32.75 100.33 33.03L100.33 33.03Q98.39 33.90 96.42 34.34Q94.44 34.78 91.77 34.78L91.77 34.78Q87.45 34.78 85.19 32.87Q82.94 30.96 82.94 27.51L82.94 27.51Q82.94 25.30 83.81 23.44Q84.69 21.57 86.23 20.10Q87.77 18.63 89.88 17.62Q92 16.61 94.53 16.15L94.53 16.15Q92.78 15.41 91.72 14.17Q90.67 12.93 90.67 11.32L90.67 11.32Q90.67 10.07 91.29 8.95Q91.91 7.82 93.10 6.99Q94.30 6.16 96.05 5.66Q97.80 5.15 100.05 5.15L100.05 5.15Q101.29 5.15 102.40 5.38Q103.50 5.61 104.35 5.98Q105.20 6.35 105.69 6.83Q106.17 7.31 106.17 7.77L106.17 7.77Q106.17 8.14 106.01 8.69Q105.85 9.25 105.59 9.80Q105.34 10.35 105.09 10.83Q104.83 11.32 104.70 11.50L104.70 11.50Q104.56 11.59 104.42 11.50Q104.28 11.41 104.33 11.22L104.33 11.22Q104.60 10.72 104.70 10.12Q104.79 9.52 104.51 8.88L104.51 8.88Q103.96 7.73 102.47 6.92Q100.97 6.12 98.95 6.12L98.95 6.12Q96.19 6.12 94.81 7.38Q93.43 8.65 93.43 10.72ZM118.22 31.56L118.22 31.56Q118.31 31.46 118.45 31.58Q118.59 31.69 118.54 31.88L118.54 31.88Q117.71 33.03 116.63 33.90Q115.55 34.78 114.49 34.78L114.49 34.78Q113.71 34.78 113.27 34.27Q112.84 33.76 112.84 32.94L112.84 32.94Q112.84 31.33 113.41 29.44Q113.99 27.55 114.95 25.62L114.95 25.62Q115.09 25.30 115.09 24.93L115.09 24.93Q115.09 24.47 114.68 24.47L114.68 24.47Q112.98 24.47 110.91 26.79Q108.84 29.12 107.09 34.18L107.09 34.18Q107.04 34.32 106.79 34.43Q106.54 34.55 106.21 34.61Q105.89 34.68 105.57 34.73Q105.25 34.78 105.06 34.78L105.06 34.78Q104.83 34.78 104.72 34.68Q104.60 34.59 104.70 34.36L104.70 34.36Q105.48 32.38 106.28 30.01Q107.09 27.65 107.69 25.25L107.69 25.25Q107.82 24.79 107.73 24.59Q107.64 24.38 107.41 24.38L107.41 24.38Q106.90 24.38 106.44 24.82Q105.98 25.25 105.62 25.76L105.62 25.76Q105.48 25.85 105.36 25.71Q105.25 25.58 105.29 25.44L105.29 25.44Q105.52 25.12 105.91 24.70Q106.31 24.29 106.81 23.90Q107.32 23.51 107.87 23.25Q108.42 23.00 108.97 23.00L108.97 23.00Q109.76 23.00 110.01 23.48Q110.26 23.97 110.12 24.66L110.12 24.66Q109.89 25.67 109.64 26.56Q109.39 27.46 109.02 28.57L109.02 28.57Q109.57 27.55 110.38 26.56Q111.18 25.58 112.17 24.77Q113.16 23.97 114.31 23.48Q115.46 23.00 116.75 23.00L116.75 23.00Q117.30 23.00 117.60 23.28Q117.90 23.55 117.90 23.92L117.90 23.92Q117.90 24.56 117.58 25.07L117.58 25.07Q116.61 26.82 115.94 28.68Q115.28 30.54 115.28 32.02L115.28 32.02Q115.28 33.21 116.06 33.21L116.06 33.21Q116.56 33.21 117.07 32.80Q117.58 32.38 118.22 31.56ZM129.67 22.31L129.67 22.31Q129.81 22.22 129.95 22.33Q130.09 22.45 130.04 22.59L130.04 22.59Q129.67 23.09 129.21 23.51Q128.75 23.92 128.06 24.01L128.06 24.01Q128.71 24.75 128.71 25.81L128.71 25.81Q128.71 26.96 128.36 27.81Q128.02 28.66 127.56 29.39Q127.10 30.13 126.64 30.75Q126.18 31.37 125.92 32.02Q125.67 32.66 125.74 33.42Q125.81 34.18 126.45 35.14L126.45 35.14Q127.47 36.71 127.95 37.90Q128.43 39.10 128.43 40.48L128.43 40.48Q128.43 41.63 127.90 42.62Q127.37 43.61 126.41 44.37Q125.44 45.13 124.04 45.56Q122.64 46 120.93 46L120.93 46Q117.44 46 115.41 44.71Q113.39 43.42 113.39 41.31L113.39 41.31Q113.39 39.70 114.52 38.43Q115.64 37.17 117.85 36.57L117.85 36.57Q118.08 36.57 118.15 36.73Q118.22 36.89 118.13 37.03L118.13 37.03Q117.12 37.40 116.52 38.13Q115.92 38.87 115.92 40.07L115.92 40.07Q115.92 42.41 117.53 43.86Q119.14 45.31 121.76 45.31L121.76 45.31Q123.97 45.31 125.03 44.16Q126.09 43.01 126.09 41.26L126.09 41.26Q126.09 40.20 125.76 39.38Q125.44 38.55 124.84 37.49L124.84 37.49Q123.97 36.02 124.06 34.64Q124.15 33.26 124.98 31.83L124.98 31.83Q125.03 31.74 125.05 31.72Q125.07 31.69 125.12 31.60L125.12 31.60Q124.61 32.11 124.04 32.43Q123.46 32.75 122.91 32.75L122.91 32.75Q121.58 32.75 120.86 31.97Q120.15 31.19 120.15 29.67L120.15 29.67Q120.15 28.52 120.66 27.32Q121.16 26.13 121.97 25.16Q122.77 24.20 123.79 23.60Q124.80 23.00 125.86 23.00L125.86 23.00Q127.42 23.00 128.29 22.88Q129.17 22.77 129.67 22.31ZM125.99 29.99L125.99 29.99Q126.27 29.35 126.45 28.66Q126.64 27.97 126.64 27.23L126.64 27.23Q126.64 25.94 126.20 25.16Q125.76 24.38 124.80 24.38L124.80 24.38Q123.60 24.38 122.89 25.41Q122.18 26.45 122.18 28.66L122.18 28.66Q122.18 31.33 123.92 31.33L123.92 31.33Q124.43 31.33 125.03 30.93Q125.63 30.54 125.99 29.99ZM150.60 0.60L150.60 0.60Q151.29 0.60 151.73 0.94Q152.17 1.29 152.33 1.86Q152.49 2.44 152.38 3.17Q152.26 3.91 151.85 4.65L151.85 4.65Q151.75 4.74 151.62 4.65Q151.48 4.55 151.43 4.42L151.43 4.42Q151.52 3.86 151.04 3.50Q150.56 3.13 149.55 3.13L149.55 3.13Q147.66 3.13 145.75 4.53Q143.84 5.93 142.05 8.23Q140.25 10.53 138.69 13.52Q137.13 16.51 135.98 19.69Q134.83 22.86 134.16 25.99Q133.49 29.12 133.49 31.69L133.49 31.69Q133.49 33.07 134.27 33.07L134.27 33.07Q134.83 33.07 135.35 32.61Q135.88 32.15 136.57 31.23L136.57 31.23Q136.71 31.14 136.83 31.26Q136.94 31.37 136.90 31.56L136.90 31.56Q135.98 32.94 134.73 33.86Q133.49 34.78 132.48 34.78L132.48 34.78Q131.61 34.78 131.26 34.27Q130.92 33.76 130.92 32.98L130.92 32.98Q130.92 30.82 131.84 27.58Q132.76 24.33 134.30 20.72Q135.84 17.11 137.86 13.52Q139.89 9.94 142.07 7.06Q144.26 4.19 146.46 2.39Q148.67 0.60 150.60 0.60ZM143.75 21.02L143.75 21.02Q143.61 21.16 143.45 21.02Q143.29 20.88 143.20 20.63Q143.11 20.38 143.11 20.08Q143.11 19.78 143.24 19.55L143.24 19.55Q143.75 18.91 144.74 17.92Q145.73 16.93 146.79 16.24L146.79 16.24Q146.88 16.19 147.02 16.31Q147.15 16.42 147.11 16.51L147.11 16.51Q146.14 17.39 145.27 18.61Q144.39 19.83 143.75 21.02ZM138.83 26.22L138.83 26.22Q138.69 26.31 138.60 26.15Q138.51 25.99 138.55 25.85L138.55 25.85Q140.25 24.47 143.29 23.00L143.29 23.00Q143.66 23.00 143.66 23.41L143.66 23.41Q143.06 24.47 142.49 25.71Q141.91 26.96 141.47 28.17Q141.04 29.39 140.76 30.52Q140.48 31.65 140.48 32.38L140.48 32.38Q140.48 33.30 141.13 33.30L141.13 33.30Q141.63 33.30 142.12 32.87Q142.60 32.43 143.24 31.74L143.24 31.74Q143.34 31.65 143.47 31.76Q143.61 31.88 143.52 32.11L143.52 32.11Q142.51 33.30 141.52 34.04Q140.53 34.78 139.61 34.78L139.61 34.78Q138 34.78 138 33.26L138 33.26Q138 32.43 138.25 31.30Q138.51 30.18 138.94 29.00Q139.38 27.83 139.91 26.70Q140.44 25.58 140.99 24.75L140.99 24.75Q140.48 25.02 139.86 25.44Q139.24 25.85 138.83 26.22ZM151.20 23.00L151.20 23.00Q152.21 23.00 152.84 23.28Q153.46 23.55 153.46 23.97L153.46 23.97Q153.46 24.47 153.20 25.12Q152.95 25.76 152.72 26.17L152.72 26.17Q152.63 26.27 152.49 26.20Q152.35 26.13 152.35 25.94L152.35 25.94Q152.49 25.62 152.49 25.02L152.49 25.02Q152.49 24.38 152.15 23.97Q151.80 23.55 151.20 23.55L151.20 23.55Q150.42 23.55 149.94 24.03Q149.45 24.52 149.45 25.39L149.45 25.39Q149.45 26.13 149.84 26.79Q150.24 27.46 150.72 28.13Q151.20 28.80 151.62 29.55Q152.03 30.31 152.03 31.28L152.03 31.28Q152.03 32.94 150.70 33.86Q149.36 34.78 147.20 34.78L147.20 34.78Q145.64 34.78 144.74 34.27Q143.84 33.76 143.84 33.17L143.84 33.17Q143.84 32.98 143.98 32.66Q144.12 32.34 144.35 31.97Q144.58 31.60 144.85 31.23Q145.13 30.87 145.45 30.64L145.45 30.64Q145.59 30.54 145.71 30.68Q145.82 30.82 145.73 30.96L145.73 30.96Q145.45 31.23 145.31 31.53Q145.18 31.83 145.18 32.34L145.18 32.34Q145.18 33.17 145.73 33.69Q146.28 34.22 147.15 34.22L147.15 34.22Q148.35 34.22 149.02 33.56Q149.68 32.89 149.68 31.92L149.68 31.92Q149.68 31.05 149.29 30.29Q148.90 29.53 148.44 28.82Q147.98 28.11 147.59 27.37Q147.20 26.63 147.20 25.81L147.20 25.81Q147.20 24.61 148.21 23.80Q149.22 23.00 151.20 23.00ZM154.65 34.36L154.65 34.36Q156.72 26.45 159.41 20.10Q162.10 13.75 165.09 9.29Q168.08 4.83 171.14 2.41Q174.20 0 176.96 0L176.96 0Q178.11 0 178.78 0.53Q179.45 1.06 179.70 1.82Q179.95 2.58 179.77 3.45Q179.58 4.32 179.08 5.01L179.08 5.01Q178.94 5.15 178.80 5.11Q178.66 5.06 178.66 4.88L178.66 4.88Q178.89 3.96 178.16 3.13Q177.42 2.30 175.81 2.30L175.81 2.30Q173.33 2.30 171.10 3.63Q168.87 4.97 166.75 8.07Q164.63 11.18 162.61 16.31Q160.59 21.44 158.47 29.07L158.47 29.07Q159.16 27.83 160.06 26.73Q160.95 25.62 162.01 24.79Q163.07 23.97 164.27 23.48Q165.46 23.00 166.75 23.00L166.75 23.00Q167.30 23.00 167.56 23.28Q167.81 23.55 167.81 23.92L167.81 23.92Q167.81 24.52 167.39 25.25L167.39 25.25Q166.43 26.96 165.83 28.75Q165.23 30.54 165.23 32.02L165.23 32.02Q165.23 32.66 165.37 33.07Q165.51 33.49 165.88 33.49L165.88 33.49Q166.34 33.49 166.89 33.00Q167.44 32.52 167.81 31.92L167.81 31.92Q167.95 31.83 168.08 31.95Q168.22 32.06 168.18 32.20L168.18 32.20Q167.58 33.21 166.50 33.99Q165.42 34.78 164.54 34.78L164.54 34.78Q163.76 34.78 163.25 34.34Q162.75 33.90 162.75 32.84L162.75 32.84Q162.75 32.02 162.91 31.07Q163.07 30.13 163.32 29.21Q163.58 28.29 163.92 27.39Q164.27 26.50 164.68 25.76L164.68 25.76Q164.91 25.21 164.91 24.98L164.91 24.98Q164.91 24.56 164.45 24.56L164.45 24.56Q163.58 24.56 162.56 25.23Q161.55 25.90 160.59 27.12Q159.62 28.34 158.72 30.04Q157.83 31.74 157.18 33.81L157.18 33.81Q157.09 34.13 156.45 34.45Q155.80 34.78 155.02 34.78L155.02 34.78Q154.56 34.78 154.65 34.36Z"></path></g></svg><!----></svg>